<svg xmlns="http://www.w3.org/2000/svg" width="20" height="24" viewBox="0 0 20 24" fill="none">
    <path d="M0.589016 19.4422C-0.192173 20.3331 -0.192173 21.7762 0.589016 22.667C0.976484 23.1125 1.48895 23.3334 2.00141 23.3334C2.51386 23.3334 3.02508 23.1107 3.41504 22.6653L10.0008 15.1591L16.5859 22.6635C16.9765 23.1125 17.4883 23.3334 18.0002 23.3334C18.512 23.3334 19.0232 23.1125 19.4141 22.6635C20.1953 21.7727 20.1953 20.3295 19.4141 19.4387L12.8271 11.9272L19.4141 4.41929C20.1953 3.52846 20.1953 2.08532 19.4141 1.19449C18.6329 0.30366 17.3674 0.30366 16.5862 1.19449L10.0008 8.70953L3.4138 1.19805C2.63261 0.307223 1.36708 0.307223 0.585892 1.19805C-0.195297 2.08888 -0.195297 3.53203 0.585892 4.42286L7.17288 11.9343L0.589016 19.4422Z" fill="white"/>
</svg>